<?xml version="1.0" standalone="no"?><!DOCTYPE svg PUBLIC "-//W3C//DTD SVG 1.1//EN" "http://www.w3.org/Graphics/SVG/1.1/DTD/svg11.dtd"><svg t="1573627258830" class="icon" viewBox="0 0 1024 1024" version="1.1" xmlns="http://www.w3.org/2000/svg" p-id="2199" xmlns:xlink="http://www.w3.org/1999/xlink" width="200" height="200"><defs><style type="text/css"></style></defs><path d="M896.48 619.75a391.84 391.84 0 0 0 3.87-54.85 385 385 0 0 0-75.11-229.47A388.78 388.78 0 0 0 658 205.23c-6-74.94-68.91-134.08-145.37-134.08S373.4 130.18 367.29 205a388.09 388.09 0 0 0-242.85 359.9 391.53 391.53 0 0 0 4.08 56.38 145.82 145.82 0 0 0-64.66 121.1c0 80.42 65.43 145.84 145.84 145.84a145 145 0 0 0 66.1-15.86q10.39 8 21.27 15.29a388.14 388.14 0 0 0 439.38-6q7.08-5 14-10.38A145 145 0 0 0 814.3 886c80.42 0 145.84-65.43 145.84-145.84a145.8 145.8 0 0 0-63.66-120.41zM512.64 141.86A75.13 75.13 0 1 1 437.5 217a75.22 75.22 0 0 1 75.14-75.14zM134.57 742.38a75.13 75.13 0 1 1 75.13 75.13 75.22 75.22 0 0 1-75.13-75.13z m201.79 86.48c-2.1-1.4-4.18-2.84-6.24-4.3a145 145 0 0 0 25.43-82.19c0-80.42-65.43-145.84-145.84-145.84-4.36 0-8.67 0.2-12.93 0.58a321.4 321.4 0 0 1-1.62-32.22 316.29 316.29 0 0 1 184.41-288.23 145.83 145.83 0 0 0 266 0.2 316.69 316.69 0 0 1 184 288c0 10.06-0.5 20.11-1.44 30.09-4.57-0.43-9.21-0.67-13.89-0.67-80.42 0-145.84 65.43-145.84 145.84a145 145 0 0 0 26.72 84.05 317.42 317.42 0 0 1-358.81 4.64zM814.3 815.3a75.13 75.13 0 1 1 75.13-75.13 75.22 75.22 0 0 1-75.13 75.13z" p-id="2200" data-spm-anchor-id="a313x.7781069.0.i3" class="selected" fill="#ffffff"></path></svg>